<svg width="120" height="120" viewBox="0 0 120 120" fill="none" xmlns="http://www.w3.org/2000/svg">
<path fill-rule="evenodd" clip-rule="evenodd" d="M74.9694 10.6282C70.4522 7.00246 65.2922 5.03103 59.9694 5.02246C54.6379 5.02246 49.4694 6.98532 44.9436 10.6539C32.1997 20.974 20.5888 32.6194 10.3065 45.3939C3.18365 54.1882 3.26079 65.6139 10.2979 74.3996C20.7132 87.437 32.5491 99.2729 45.5865 109.688C54.3551 116.717 65.7894 116.785 74.5922 109.68C87.4977 99.2936 99.2508 87.5521 109.649 74.6567C116.849 65.7339 116.789 54.291 109.649 45.3939C99.4053 32.5632 87.7747 20.9039 74.9694 10.6282Z" fill="#D9F9EB"/>
<path fill-rule="evenodd" clip-rule="evenodd" d="M85.9342 35.5085C86.4071 36.0296 86.7727 36.6388 87.0101 37.3012C87.2475 37.9636 87.3521 38.6663 87.3179 39.3692C87.2836 40.072 87.1113 40.7612 86.8106 41.3975C86.51 42.0337 86.0869 42.6044 85.5657 43.0771C78.8542 49.1628 74.2342 54.2543 70.4028 60.2285C66.5457 66.2457 63.3571 73.3771 59.7485 83.7228C59.4484 84.5865 58.9322 85.359 58.2491 85.9667C57.566 86.5745 56.7388 86.9973 55.8461 87.1949C54.9534 87.3925 54.0249 87.3584 53.1491 87.0957C52.2734 86.833 51.4794 86.3506 50.8428 85.6943L35.26 69.6228C34.7703 69.1174 34.385 68.5205 34.126 67.8662C33.8671 67.2119 33.7395 66.513 33.7507 65.8094C33.7732 64.3884 34.3592 63.0346 35.38 62.0457C36.4007 61.0568 37.7724 60.5139 39.1934 60.5364C40.6144 60.5589 41.9682 61.145 42.9571 62.1657L52.6171 72.1257C55.3257 65.2514 58.0942 59.5857 61.3857 54.4514C65.8942 47.4057 71.2428 41.5943 78.3657 35.14C78.8868 34.6671 79.4959 34.3015 80.1583 34.0641C80.8208 33.8267 81.5235 33.7221 82.2263 33.7563C82.9291 33.7906 83.6184 33.9629 84.2546 34.2636C84.8908 34.5642 85.4615 34.9873 85.9342 35.5085Z" fill="#059B5A"/>
</svg>

